<svg width="127" height="127" viewBox="0 0 127 127" fill="none" xmlns="http://www.w3.org/2000/svg">
<path fill-rule="evenodd" clip-rule="evenodd" d="M89.3297 0C102.375 0 108.898 0.000212302 113.881 2.54706C118.263 4.78734 121.827 8.36203 124.06 12.7587C126.599 17.7572 126.599 24.3008 126.599 37.3875V89.613C126.599 102.699 126.599 109.243 124.06 114.241C121.827 118.638 118.263 122.213 113.881 124.453C108.898 127 102.375 127 89.3297 127H37.2693C24.2239 127 17.7011 127 12.7184 124.453C8.33556 122.213 4.77219 118.638 2.53901 114.241C0.000253072 109.243 0 102.7 0 89.613V37.387C0 24.3004 0.000247485 17.7572 2.53901 12.7587C4.77219 8.36197 8.33556 4.78734 12.7184 2.54706C17.7011 0.000205295 24.2239 0 37.2693 0H89.3297ZM53.8303 70.208C53.145 70.208 52.4657 70.3437 51.8325 70.6078C51.1995 70.8719 50.6239 71.2593 50.1394 71.7472L40.174 81.7852L37.5258 79.1181C35.5794 77.1583 32.2479 78.1271 31.643 80.8329L27.8685 97.6798C27.7361 98.2593 27.7522 98.8631 27.9162 99.4343C28.0796 100.003 28.3842 100.521 28.8007 100.939L28.7974 100.944C29.2131 101.366 29.7289 101.674 30.296 101.839C30.8632 102.005 31.4628 102.021 32.0382 101.888L48.7661 98.0845C51.4512 97.4753 52.4152 94.1217 50.4688 92.1614L47.8206 89.4943L57.7879 79.4582C58.7662 78.4725 59.316 77.1349 59.316 75.7412C59.316 74.3474 58.7662 73.0099 57.7879 72.0241L57.6543 71.8897L57.6591 71.8864L57.5208 71.7472C57.0363 71.2592 56.4608 70.872 55.8277 70.6078C55.1946 70.3437 54.5156 70.208 53.8303 70.208ZM89.7822 63.8841C87.4545 62.4019 84.4225 64.0879 84.4219 66.8611V70.6313H63.0647C63.7782 72.0048 64.1847 73.5666 64.1847 75.2241C64.1846 77.6206 63.341 79.8187 61.9366 81.5336L84.42 81.5332L84.4186 85.3033C84.4189 88.0765 87.4545 89.7625 89.7822 88.2808L104.282 79.0602C105.366 78.3669 105.909 77.2228 105.909 76.0798C105.907 74.9383 105.365 73.7968 104.278 73.1061L89.7822 63.8841ZM54.3462 23.6004C53.7559 23.5976 53.1736 23.7465 52.6564 24.0332C52.1388 24.3206 51.7014 24.7377 51.3881 25.2424L42.2315 39.8432H42.2281C40.7571 42.1873 42.4325 45.2427 45.1858 45.2434H48.9311V66.9334C50.4846 65.9028 52.3435 65.3014 54.3429 65.3013C56.3435 65.3014 58.2039 65.9031 59.758 66.9348V45.2434H63.5029C66.2568 45.2434 67.9287 42.1876 66.4591 39.8413L57.3006 25.2424C56.6128 24.1495 55.4799 23.6016 54.3462 23.6004Z" fill="#1F1E1E"/>
</svg>
